<?xml version="1.0" encoding="UTF-8"?>
<!DOCTYPE svg PUBLIC "-//W3C//DTD SVG 1.1//EN" "http://www.w3.org/Graphics/SVG/1.1/DTD/svg11.dtd">
<svg xmlns="http://www.w3.org/2000/svg" version="1.1" width="512px" height="512px" style="shape-rendering:geometricPrecision; text-rendering:geometricPrecision; image-rendering:optimizeQuality; fill-rule:evenodd; clip-rule:evenodd" xmlns:xlink="http://www.w3.org/1999/xlink">
<g><path style="opacity:0.983" fill="#ffc066" d="M 249.5,15.5 C 259.36,13.3496 266.527,16.6829 271,25.5C 271.667,40.1667 271.667,54.8333 271,69.5C 266.527,78.4822 259.36,81.6489 249.5,79C 245,77.1667 241.833,74 240,69.5C 239.333,54.8333 239.333,40.1667 240,25.5C 242.022,20.98 245.189,17.6467 249.5,15.5 Z"/></g>
<g><path style="opacity:0.967" fill="#ffc166" d="M 92.5,80.5 C 97.4116,80.0631 102.078,80.8964 106.5,83C 115.333,91.8333 124.167,100.667 133,109.5C 139.674,123.818 135.341,132.818 120,136.5C 116.263,136.025 112.763,134.858 109.5,133C 100.667,124.167 91.8333,115.333 83,106.5C 78.0395,94.7697 81.2061,86.103 92.5,80.5 Z"/></g>
<g><path style="opacity:0.969" fill="#ffc166" d="M 409.5,80.5 C 426.153,80.3155 432.653,88.3155 429,104.5C 420.197,114.304 411.03,123.804 401.5,133C 386.889,139.695 377.889,135.195 374.5,119.5C 375.055,115.946 376.221,112.613 378,109.5C 386.833,100.667 395.667,91.8333 404.5,83C 406.315,82.2432 407.981,81.4098 409.5,80.5 Z"/></g>
<g><path style="opacity:1" fill="#ffd54f" d="M 331.5,132.5 C 362.693,192.573 357.527,249.239 316,302.5C 270.861,349.066 217.361,362.233 155.5,342C 148.221,339.027 141.221,335.527 134.5,331.5C 133.893,331.624 133.56,331.957 133.5,332.5C 109.164,291.62 104.997,248.62 121,203.5C 146.891,145.037 191.891,114.37 256,111.5C 283.118,111.709 308.285,118.709 331.5,132.5 Z"/></g>
<g><path style="opacity:0.992" fill="#ffc165" d="M 331.5,132.5 C 369.565,157.252 392.065,192.252 399,237.5C 403.724,299.885 379.891,347.718 327.5,381C 287.169,402.201 245.503,405.201 202.5,390C 173.241,378.232 150.241,359.065 133.5,332.5C 133.56,331.957 133.893,331.624 134.5,331.5C 141.221,335.527 148.221,339.027 155.5,342C 217.361,362.233 270.861,349.066 316,302.5C 357.527,249.239 362.693,192.573 331.5,132.5 Z"/></g>
<g><path style="opacity:0.983" fill="#ffc066" d="M 25.5,239.5 C 40.1705,239.333 54.8371,239.5 69.5,240C 78.4822,244.473 81.6489,251.64 79,261.5C 77.1667,266 74,269.167 69.5,271C 54.8333,271.667 40.1667,271.667 25.5,271C 18.513,268.193 15.1797,263.027 15.5,255.5C 15.3021,247.885 18.6354,242.551 25.5,239.5 Z"/></g>
<g><path style="opacity:0.983" fill="#ffc066" d="M 441.5,239.5 C 456.17,239.333 470.837,239.5 485.5,240C 494.482,244.473 497.649,251.64 495,261.5C 493.167,266 490,269.167 485.5,271C 470.833,271.667 456.167,271.667 441.5,271C 434.513,268.193 431.18,263.027 431.5,255.5C 431.302,247.885 434.635,242.551 441.5,239.5 Z"/></g>
<g><path style="opacity:0.971" fill="#ffc166" d="M 118.5,373.5 C 129.556,373.89 135.89,379.557 137.5,390.5C 136.945,394.054 135.779,397.387 134,400.5C 124.47,410.364 114.637,419.864 104.5,429C 88.1152,432.606 80.2819,426.106 81,409.5C 81.4709,407.754 82.1376,406.087 83,404.5C 92.1667,395.333 101.333,386.167 110.5,377C 113.158,375.522 115.825,374.355 118.5,373.5 Z"/></g>
<g><path style="opacity:0.972" fill="#ffc165" d="M 388.5,373.5 C 392.769,373.734 396.769,374.901 400.5,377C 409.667,386.167 418.833,395.333 428,404.5C 433.671,418.813 429.004,427.479 414,430.5C 410.681,430.212 407.515,429.379 404.5,428C 395.333,418.833 386.167,409.667 377,400.5C 370.98,387.214 374.813,378.214 388.5,373.5 Z"/></g>
<g><path style="opacity:0.983" fill="#ffc066" d="M 249.5,431.5 C 259.36,429.35 266.527,432.683 271,441.5C 271.667,456.167 271.667,470.833 271,485.5C 266.527,494.482 259.36,497.649 249.5,495C 245,493.167 241.833,490 240,485.5C 239.333,470.833 239.333,456.167 240,441.5C 242.022,436.98 245.189,433.647 249.5,431.5 Z"/></g>
</svg>
